<?xml version="1.0" encoding="UTF-8" standalone="no"?>
<!-- Created with Inkscape (http://www.inkscape.org/) -->

<svg
   xmlns:dc="http://purl.org/dc/elements/1.1/"
   xmlns:cc="http://creativecommons.org/ns#"
   xmlns:rdf="http://www.w3.org/1999/02/22-rdf-syntax-ns#"
   xmlns:svg="http://www.w3.org/2000/svg"
   xmlns="http://www.w3.org/2000/svg"
   xmlns:sodipodi="http://sodipodi.sourceforge.net/DTD/sodipodi-0.dtd"
   xmlns:inkscape="http://www.inkscape.org/namespaces/inkscape"
   version="1.1"
   id="svg167"
   width="16"
   height="16"
   viewBox="0 0 16 16"
   sodipodi:docname="favicon.ico.svg"
   inkscape:version="0.92.5 (2060ec1f9f, 2020-04-08)">
  <metadata
     id="metadata173">
    <rdf:RDF>
      <cc:Work
         rdf:about="">
        <dc:format>image/svg+xml</dc:format>
        <dc:type
           rdf:resource="http://purl.org/dc/dcmitype/StillImage" />
        <dc:title></dc:title>
      </cc:Work>
    </rdf:RDF>
  </metadata>
  <defs
     id="defs171" />
  <sodipodi:namedview
     pagecolor="#ffffff"
     bordercolor="#666666"
     borderopacity="1"
     objecttolerance="10"
     gridtolerance="10"
     guidetolerance="10"
     inkscape:pageopacity="0"
     inkscape:pageshadow="2"
     inkscape:window-width="1288"
     inkscape:window-height="704"
     id="namedview169"
     showgrid="false"
     inkscape:zoom="14.75"
     inkscape:cx="19.961026"
     inkscape:cy="5.7425538"
     inkscape:window-x="72"
     inkscape:window-y="27"
     inkscape:window-maximized="1"
     inkscape:current-layer="svg167" />
  <ellipse
     style="fill:#ffffff;fill-opacity:1;stroke-width:1.12840676"
     id="path1079"
     cx="7.8644061"
     cy="8.1694908"
     rx="7.2542372"
     ry="7.0847454" />
  <path
     inkscape:connector-curvature="0"
     id="path1005"
     d="M 7.0320263,15.409586 C 6.875328,15.400886 6.7229694,15.375376 6.693452,15.352736 6.663935,15.330086 6.522586,15.295066 6.3793429,15.274916 6.2360998,15.254766 6.10168,15.212056 6.0806321,15.179996 c -0.02883,-0.04391 -0.038466,-0.04386 -0.039066,2.02e-4 -4.687e-4,0.03349 -0.045336,0.0472 -0.1049738,0.03205 -0.057297,-0.01455 -0.1041773,-0.04218 -0.1041773,-0.06139 0,-0.01922 -0.1640784,-0.07628 -0.3646187,-0.126792 -0.2005408,-0.05052 -0.3646192,-0.106861 -0.3646192,-0.125192 0,-0.01833 -0.104521,-0.06331 -0.2322699,-0.09994 -0.1277485,-0.03664 -0.2563318,-0.09477 -0.2857406,-0.129187 -0.029409,-0.03441 -0.1475653,-0.09274 -0.2625699,-0.129603 -0.1150045,-0.03684 -0.2090991,-0.08554 -0.2090991,-0.108199 0,-0.02266 -0.07618,-0.07921 -0.1692872,-0.125667 C 3.851103,14.259801 3.6347753,14.11693 3.4634834,13.988767 3.2921916,13.860605 3.1206385,13.732978 3.0822544,13.705153 2.8796897,13.55831 2.290404,12.984824 2.290404,12.934534 c 0,-0.03212 -0.042458,-0.08815 -0.09435,-0.124512 -0.1173101,-0.0822 -0.5307101,-0.624614 -0.5307101,-0.696341 0,-0.02902 -0.019669,-0.05275 -0.043708,-0.05275 -0.075372,0 -0.78970624,-1.430395 -0.78970624,-1.581323 0,-0.04523 -0.023822,-0.09652 -0.052938,-0.114001 -0.029116,-0.01747 -0.038818,-0.05396 -0.021559,-0.08108 0.017259,-0.02712 0.00866,-0.07677 -0.019111,-0.110334 -0.062122,-0.07509 -0.166834,-0.5436217 -0.166834,-0.7464987 0,-0.08211 -0.021092,-0.149284 -0.046871,-0.149284 -0.025779,0 -0.050564,-0.10814 -0.05508,-0.24031 -0.032902,-0.963096 -0.03287,-1.512428 9.42e-5,-1.555688 0.0212,-0.02782 0.034701,-0.15873 0.02999,-0.290901 -0.00471,-0.13217 0.00685,-0.240309 0.025653,-0.240309 0.018815,0 0.05027,-0.124855 0.069901,-0.2774558 0.01963,-0.1526006 0.056467,-0.2899266 0.08186,-0.3051688 0.025392,-0.015242 0.03285,-0.061424 0.016571,-0.1026248 -0.016278,-0.041201 -0.00605,-0.1030787 0.022719,-0.1375061 0.028774,-0.034427 0.094589,-0.2105753 0.14625719,-0.3914398 0.051668,-0.1808645 0.1233081,-0.3841277 0.15920005,-0.4516958 0.035892,-0.067568 0.053355,-0.1415583 0.038806,-0.1644224 -0.014549,-0.022863 -0.00485,-0.041571 0.02156,-0.041571 0.026406,0 0.1274089,-0.1488979 0.2244498,-0.3308843 C 1.5787772,4.2379893 1.6569873,4.1041711 1.7019759,4.0719284 1.7445938,4.0413847 1.8503456,3.888225 1.9052997,3.7774558 1.9341741,3.7192551 2.0058987,3.6421368 2.5702519,3.0624997 2.8430537,2.7823098 3.6833598,2.0944144 3.7528271,2.0944144 c 0.028873,0 0.1002606,-0.043221 0.1586404,-0.096046 0.1154066,-0.1044278 1.0848511,-0.5833145 1.2958865,-0.6401428 0.071622,-0.019286 0.1536608,-0.052418 0.1823094,-0.073624 0.028649,-0.021207 0.1341276,-0.055247 0.2343977,-0.075644 0.1002703,-0.020398 0.2045657,-0.049943 0.2317674,-0.065657 0.027202,-0.015714 0.097522,-0.033268 0.1562652,-0.039008 0.058744,-0.00574 0.1654066,-0.026304 0.2370282,-0.045695 0.378792,-0.10255726 0.6196112,-0.12992306 1.3803424,-0.15685886 0.88079,-0.031187 1.678875,0.041823 2.1095798,0.19298636 0.04298,0.015082 0.2129128,0.056307 0.3776419,0.091608 0.16473,0.035303 0.299509,0.079522 0.299509,0.098266 0,0.018744 0.02929,0.036201 0.06511,0.038795 0.112846,0.00817 0.470176,0.1514124 0.794348,0.3184221 0.171891,0.088557 0.38285,0.1963132 0.468795,0.2394591 0.08594,0.043146 0.17501,0.1087526 0.19792,0.1457929 0.02291,0.037041 0.07068,0.067346 0.106148,0.067346 0.03547,0 0.145644,0.067373 0.244832,0.1497183 0.09919,0.082345 0.198229,0.1506436 0.220092,0.1517744 0.02186,0.00113 0.156334,0.1158869 0.298824,0.2550135 0.142491,0.1391265 0.278224,0.2529574 0.301629,0.2529574 0.05374,0 0.375521,0.3199792 0.375521,0.3734144 0,0.021865 0.07618,0.1149681 0.169287,0.2068975 0.09311,0.09193 0.216167,0.2237681 0.273464,0.2929749 0.101694,0.1228263 0.141254,0.1828554 0.291376,0.4420914 0.04028,0.069563 0.08804,0.1378618 0.106127,0.1517745 0.04729,0.036383 0.409868,0.7365145 0.409868,0.7914596 0,0.02535 0.06645,0.1706758 0.147659,0.3229477 0.08121,0.1522721 0.18849,0.4476043 0.238395,0.6562941 0.04991,0.2086899 0.111655,0.4249684 0.137221,0.480619 0.06771,0.1473867 0.153875,1.0114244 0.153875,1.5430404 0,0.520037 -0.0921,1.415769 -0.15345,1.49229 -0.02238,0.02791 -0.05565,0.1461688 -0.07396,0.2627928 -0.01831,0.1166239 -0.06032,0.2759879 -0.09337,0.3541409 -0.03305,0.07815 -0.06357,0.164864 -0.06783,0.192689 -0.0043,0.02783 -0.03576,0.11468 -0.07001,0.193011 -0.03425,0.07833 -0.06226,0.160974 -0.06226,0.18365 0,0.07068 -0.42506,0.875008 -0.607551,1.149657 -0.09558,0.143841 -0.173775,0.285936 -0.173775,0.315767 0,0.02983 -0.04687,0.08267 -0.104178,0.117427 -0.05729,0.03476 -0.104179,0.09057 -0.104179,0.124039 0,0.03347 -0.04283,0.0906 -0.09517,0.126957 -0.05235,0.03636 -0.116801,0.104243 -0.143242,0.150853 -0.123331,0.217403 -1.311428,1.281225 -1.430898,1.281225 -0.02184,0 -0.112252,0.06278 -0.200922,0.139516 -0.08866,0.07674 -0.161217,0.124429 -0.161217,0.105988 0,-0.01844 -0.04102,-1.52e-4 -0.09116,0.04069 -0.139374,0.113474 -1.044933,0.529426 -1.367319,0.628056 -0.157569,0.0482 -0.356806,0.115774 -0.4427531,0.150155 -0.08595,0.03438 -0.2969048,0.07865 -0.4687956,0.09838 -0.171892,0.01973 -0.33597,0.05334 -0.364619,0.07469 -0.02865,0.02135 -0.134128,0.04239 -0.234398,0.04676 -0.460936,0.02006 -1.616779,0.02961 -1.873603,0.01547 z m 1.873604,-0.626448 c 0.04297,-0.0158 0.26565,-0.05623 0.494839,-0.08983 0.2291888,-0.0336 0.4371436,-0.08008 0.4621216,-0.103289 0.02498,-0.02321 0.07772,-0.03015 0.117199,-0.01544 0.03949,0.01471 0.07179,0.0044 0.07179,-0.02292 0,-0.02732 0.06446,-0.06225 0.143243,-0.07761 0.07878,-0.01536 0.213562,-0.05615 0.299508,-0.09062 0.08594,-0.03448 0.167985,-0.0665 0.18231,-0.07116 0.160343,-0.0522 0.342776,-0.142746 0.368245,-0.182771 0.01748,-0.02747 0.08242,-0.05366 0.144303,-0.05819 0.06189,-0.0045 0.112512,-0.02616 0.112512,-0.04805 0,-0.02191 0.03516,-0.03983 0.07813,-0.03983 0.04298,0 0.07813,-0.02276 0.07813,-0.05059 0,-0.02783 0.02189,-0.05059 0.04863,-0.05059 0.07643,0 0.576434,-0.31375 0.576434,-0.361704 0,-0.02366 0.02586,-0.04303 0.05746,-0.04303 0.03161,0 0.142941,-0.07895 0.247419,-0.175453 0.104479,-0.0965 0.309152,-0.277955 0.454829,-0.403236 0.253355,-0.217881 0.731411,-0.801489 0.718792,-0.877497 -0.0033,-0.01995 0.03771,-0.06601 0.09116,-0.102369 0.05345,-0.03636 0.09718,-0.09896 0.09718,-0.139127 0,-0.04016 0.02344,-0.07302 0.05209,-0.07302 0.02865,0 0.05209,-0.03416 0.05209,-0.07589 0,-0.04174 0.02344,-0.07589 0.05209,-0.07589 0.02865,0 0.04787,-0.01708 0.0427,-0.03795 -0.01219,-0.04926 0.178546,-0.433324 0.23521,-0.473627 0.02393,-0.01702 0.04182,-0.04534 0.03975,-0.06292 -0.0037,-0.03203 0.122867,-0.333611 0.210509,-0.501339 0.02567,-0.04911 0.08322,-0.242427 0.127914,-0.429586 0.04469,-0.1871599 0.100066,-0.3632537 0.123055,-0.3913217 0.06156,-0.07516 0.158513,-0.965342 0.15802,-1.450921 -2.6e-4,-0.231773 -0.02407,-0.614917 -0.05297,-0.851432 -0.06626,-0.542367 -0.07113,-0.5683922 -0.120429,-0.6450418 -0.02237,-0.034781 -0.02556,-0.087002 -0.0071,-0.1160467 0.01848,-0.029045 0.01086,-0.080269 -0.01696,-0.1138309 -0.02781,-0.033563 -0.06728,-0.140705 -0.08773,-0.2380935 -0.02045,-0.097389 -0.06616,-0.2226025 -0.101576,-0.2782531 -0.03542,-0.05565 -0.09683,-0.2093222 -0.136479,-0.3414924 -0.03964,-0.1321702 -0.09178,-0.2403095 -0.115867,-0.2403095 -0.02409,0 -0.02931,-0.022766 -0.0116,-0.050591 0.01771,-0.027825 0.0048,-0.050591 -0.02854,-0.050591 -0.03341,0 -0.04914,-0.029328 -0.03498,-0.065174 0.01418,-0.03586 -0.05328,-0.1781484 -0.149879,-0.3162107 C 13.882573,4.7622385 13.803174,4.6297987 13.802736,4.6059901 13.801999,4.5659169 13.636248,4.3475687 13.470752,4.1686594 13.432144,4.1269215 13.356605,4.0244737 13.302891,3.9409978 13.190778,3.7667664 12.504315,3.1062385 12.435357,3.1062385 c -0.02527,0 -0.03147,-0.022766 -0.01376,-0.050591 0.01771,-0.027825 0.01071,-0.050591 -0.01564,-0.050591 -0.02631,0 -0.15075,-0.07946 -0.276538,-0.1765792 -0.125789,-0.097118 -0.255498,-0.1768 -0.288244,-0.1770701 -0.03274,-2.7e-4 -0.07303,-0.03464 -0.08952,-0.076378 -0.01649,-0.041738 -0.06392,-0.075887 -0.10541,-0.075887 -0.04149,0 -0.08324,-0.018526 -0.09279,-0.041169 -0.0095,-0.022643 -0.25176,-0.1503888 -0.538246,-0.2838797 C 10.728722,2.0406025 10.459165,1.9146237 10.416193,1.8941406 10.373213,1.8736576 10.215001,1.8263526 10.064596,1.7890201 9.9141899,1.7516871 9.7911299,1.7039871 9.7911299,1.6830194 c 0,-0.020967 -0.05101,-0.028582 -0.1133388,-0.016922 -0.06234,0.01166 -0.1392648,3.035e-4 -0.1709518,-0.025241 -0.240817,-0.1941169 -2.6406803,-0.1938498 -3.1535427,3.511e-4 -0.014324,0.00543 -0.04693,0.00609 -0.072457,0.00149 -0.025527,-0.0046 -0.1192862,0.024964 -0.2083536,0.065706 -0.089068,0.040742 -0.2498399,0.089878 -0.3572723,0.1091917 -0.1074323,0.019314 -0.1953314,0.05354 -0.1953314,0.076058 0,0.022518 -0.07032,0.055943 -0.1562652,0.074277 -0.085946,0.018335 -0.1562652,0.053577 -0.1562652,0.078319 0,0.024742 -0.035159,0.03188 -0.078133,0.015863 -0.042973,-0.016017 -0.078133,-0.00258 -0.078133,0.029869 0,0.032444 -0.02344,0.04492 -0.052088,0.027722 -0.028649,-0.017197 -0.052088,-0.00715 -0.052088,0.02231 0,0.029468 -0.033434,0.053577 -0.074296,0.053577 -0.089173,0 -0.6392765,0.3103881 -0.9863019,0.5565062 -0.2949197,0.2091635 -1.2833794,1.1176765 -1.2833794,1.1795797 0,0.023585 -0.08204,0.1401235 -0.1823095,0.2589734 -0.1002703,0.1188499 -0.1823093,0.2422037 -0.1823093,0.2741196 0,0.031916 -0.02344,0.058028 -0.052088,0.058028 -0.028649,0 -0.052088,0.03415 -0.052088,0.075887 0,0.041738 -0.01758,0.076065 -0.039066,0.076281 -0.021487,2.175e-4 -0.064769,0.051441 -0.096185,0.1138308 C 1.9674718,4.8511859 1.8578692,5.0559036 1.7553263,5.2437244 1.652784,5.4315452 1.581738,5.5852169 1.5974475,5.5852169 c 0.015709,0 0.00563,0.028458 -0.022386,0.063239 -0.028021,0.034782 -0.079505,0.1767677 -0.1144093,0.3155238 -0.034903,0.1387568 -0.085693,0.2783027 -0.1128649,0.3101025 -0.027172,0.0318 -0.060551,0.1459331 -0.074174,0.2536297 -0.030631,0.2421454 -0.07658,0.4751014 -0.1134645,0.5752494 -0.015372,0.04174 -0.027621,0.178334 -0.027219,0.303548 4.011e-4,0.125214 -0.016876,0.250428 -0.038395,0.278253 -0.057946,0.07493 -0.050311,0.850033 0.00908,0.921833 0.028106,0.03398 0.042933,0.17628 0.03295,0.316228 -0.00998,0.139948 -0.00287,0.254436 0.015801,0.254419 0.018674,-1.7e-5 0.050584,0.142257 0.070913,0.316166 0.020328,0.173908 0.063649,0.3481528 0.096269,0.3872108 0.03262,0.03906 0.050967,0.0732 0.040772,0.07589 -0.037067,0.0097 0.1009288,0.4314859 0.1510224,0.4615559 0.028337,0.01701 0.037576,0.05285 0.020531,0.07963 -0.035737,0.05616 0.408131,0.955605 0.5865481,1.18857 0.065942,0.0861 0.1198938,0.173102 0.1198938,0.193332 0,0.02024 0.029299,0.06678 0.065111,0.10345 0.03581,0.03667 0.11199,0.130945 0.1692872,0.209505 0.057297,0.07856 0.2155158,0.263453 0.3515967,0.410874 0.1360809,0.14742 0.2474199,0.290561 0.2474199,0.318093 0,0.02753 0.030279,0.05005 0.067288,0.05005 0.037009,0 0.1708072,0.102444 0.2973314,0.227663 0.1265242,0.125213 0.2471567,0.227661 0.2680724,0.227661 0.020916,0 0.1150181,0.0683 0.2091168,0.151775 0.094099,0.08347 0.1981542,0.151774 0.2312347,0.151774 0.03308,0 0.089111,0.0339 0.1245144,0.07533 0.035402,0.04143 0.085152,0.06285 0.1105547,0.0476 0.025402,-0.01525 0.046187,-0.0022 0.046187,0.02883 0,0.0311 0.02344,0.0425 0.052088,0.02529 0.028648,-0.0172 0.052088,-0.0099 0.052088,0.01628 0,0.02615 0.1347787,0.109153 0.2995082,0.184452 0.1647296,0.0753 0.3861914,0.180461 0.4921374,0.233692 0.105946,0.05323 0.215759,0.09679 0.244029,0.09679 0.028269,0 0.1173853,0.02645 0.1980337,0.05876 0.080649,0.03232 0.1666814,0.05428 0.1911832,0.04881 0.024502,-0.0055 0.071381,0.01162 0.1041762,0.03797 0.032795,0.02635 0.2588659,0.07625 0.5023791,0.110885 0.2435132,0.03464 0.4612392,0.0785 0.4838352,0.09748 0.04869,0.04089 1.746737,0.03222 1.860142,-0.0095 z M 7.3429783,14.50735 C 7.1854103,14.49639 7.0096123,14.46674 6.9523153,14.44148 6.8950183,14.41621 6.6840599,14.3679 6.4835196,14.334112 6.2829793,14.300322 6.0603015,14.249342 5.9886799,14.220819 c -0.071622,-0.02852 -0.1419408,-0.05568 -0.1562652,-0.06035 -0.014324,-0.0047 -0.092029,-0.03503 -0.1726782,-0.06747 -0.080649,-0.03245 -0.1586591,-0.05899 -0.173357,-0.05899 -0.030848,0 -0.6989843,-0.321056 -0.9292638,-0.446534 -0.085469,-0.04658 -0.1843429,-0.118825 -0.2197191,-0.160563 -0.035377,-0.04174 -0.065066,-0.05548 -0.065977,-0.03056 -9.111e-4,0.02494 -0.058637,-0.01438 -0.1282786,-0.08737 -0.069642,-0.07299 -0.1536823,-0.138917 -0.1867559,-0.146515 -0.083942,-0.01928 -1.0840379,-0.990236 -1.1546095,-1.120966 -0.031781,-0.05888 -0.089522,-0.125248 -0.1283127,-0.147499 -0.03879,-0.02225 -0.070529,-0.06095 -0.070529,-0.086 0,-0.05728 -0.3007078,-0.492868 -0.3682401,-0.533407 -0.027592,-0.01656 -0.037483,-0.05004 -0.02198,-0.07441 0.015503,-0.02436 -0.045448,-0.160528 -0.1354442,-0.302587 -0.089997,-0.142061 -0.1500054,-0.271524 -0.1333524,-0.287699 0.016652,-0.01618 -0.00406,-0.07702 -0.046015,-0.135203 -0.041961,-0.05818 -0.076293,-0.137128 -0.076293,-0.175426 0,-0.0383 -0.033099,-0.141371 -0.073555,-0.229052 C 1.5951578,9.7388263 1.4368478,8.6818523 1.4513901,8.0894983 1.4674944,7.4335283 1.597457,6.5491794 1.7115127,6.3194627 1.739325,6.2634463 1.8012635,6.0967318 1.8491531,5.9489864 1.9436909,5.6573262 2.3673793,4.832341 2.4646812,4.7504613 2.4977474,4.7226361 2.559961,4.6315714 2.6029343,4.5480954 2.6459076,4.4646189 2.7220865,4.3665723 2.7722216,4.3302129 c 0.050135,-0.03636 0.091154,-0.087114 0.091154,-0.1127873 0,-0.062096 1.2128038,-1.21237 1.2782748,-1.21237 0.031932,0 0.3266826,-0.1981622 0.4237339,-0.2848782 0.035219,-0.031469 0.051114,-0.069767 0.03532,-0.085107 -0.015794,-0.01534 0.014623,-0.016978 0.067591,-0.00364 0.054105,0.013624 0.174924,-0.032217 0.2757139,-0.1046109 0.098674,-0.070874 0.2165172,-0.128862 0.2618741,-0.128862 0.045357,0 0.1287022,-0.031454 0.1852116,-0.069897 0.05651,-0.038443 0.1261846,-0.07532 0.1548332,-0.081949 0.028649,-0.00663 0.106354,-0.03209 0.1726782,-0.056582 0.066324,-0.024492 0.1409779,-0.044531 0.1658964,-0.044531 0.024918,0 0.099572,-0.020039 0.1658963,-0.04453 0.066325,-0.024492 0.1440297,-0.051199 0.1726783,-0.059349 0.028649,-0.00815 0.1554328,-0.045027 0.2817425,-0.081949 0.1263096,-0.036921 0.3040612,-0.067129 0.3950034,-0.067129 0.090942,0 0.1808241,-0.015029 0.1997361,-0.033398 0.04065,-0.03948 1.701905,-0.054833 1.701898,-0.01573 -3e-6,0.014718 0.211584,0.054748 0.470192,0.088956 0.258607,0.034209 0.5105846,0.084606 0.5599506,0.1119955 0.08391,0.046554 0.4944851,0.1936053 0.6106371,0.2187034 0.02865,0.00619 0.16638,0.073334 0.306069,0.1492088 0.139689,0.075875 0.271197,0.1379536 0.29224,0.1379536 0.02104,0 0.123569,0.05623 0.227837,0.124954 0.104264,0.068725 0.189578,0.1123441 0.189578,0.096932 0,-0.015413 0.09048,0.04158 0.201066,0.126649 0.110587,0.085069 0.216066,0.1401032 0.234398,0.1222979 0.01833,-0.017806 0.03333,-0.00446 0.03333,0.029636 0,0.034105 0.02706,0.045765 0.06014,0.025911 0.03404,-0.020432 0.04611,-0.014057 0.02783,0.014687 -0.03364,0.052868 0.136606,0.2191115 0.324298,0.3166749 0.05974,0.031057 0.108628,0.089814 0.108628,0.1305726 0,0.040759 0.02049,0.074107 0.04554,0.074107 0.05918,0 0.423254,0.3237269 0.423254,0.3763495 0,0.037073 0.207685,0.2955852 0.392012,0.4879495 0.04223,0.044072 0.07678,0.098839 0.07678,0.1217033 0,0.022865 0.05857,0.1161553 0.130156,0.2073127 0.07159,0.091158 0.154022,0.2185201 0.18319,0.2830284 0.02917,0.064508 0.122067,0.2403808 0.206442,0.3908277 0.08437,0.1504466 0.141197,0.2927352 0.126267,0.3161969 -0.01492,0.023461 -0.0067,0.042656 0.01817,0.042656 0.02493,0 0.0762,0.1195223 0.113962,0.2656052 0.03775,0.1460829 0.08358,0.2883714 0.101823,0.3161968 0.01825,0.027825 0.032,0.096124 0.03056,0.1517744 -0.0014,0.05565 0.01565,0.1138399 0.03799,0.1293097 0.02233,0.01547 0.05578,0.169142 0.07433,0.341492 0.01855,0.172352 0.04797,0.31337 0.06537,0.313374 0.0456,1.1e-5 0.03767,1.604635 -0.0081,1.649143 -0.02108,0.02048 -0.03833,0.108158 -0.03833,0.194844 0,0.08669 -0.03647,0.282097 -0.08105,0.434244 -0.04457,0.152147 -0.08707,0.3160068 -0.09444,0.3641348 -0.0074,0.04813 -0.02949,0.1031399 -0.04918,0.1222639 -0.01968,0.01912 -0.03578,0.06931 -0.03578,0.111536 0,0.04223 -0.04436,0.169339 -0.09857,0.28247 -0.05421,0.113129 -0.139435,0.313829 -0.189386,0.445999 -0.04995,0.13217 -0.110761,0.24031 -0.135133,0.24031 -0.02437,0 -0.07739,0.0769 -0.11783,0.170894 -0.04043,0.094 -0.09973,0.186629 -0.131769,0.205861 -0.03204,0.01923 -0.04629,0.05377 -0.03166,0.07676 0.01463,0.02299 -0.0085,0.05485 -0.05124,0.0708 -0.04281,0.01595 -0.07783,0.05411 -0.07783,0.0848 0,0.03069 -0.03538,0.09015 -0.07861,0.132146 -0.04324,0.04199 -0.06291,0.102979 -0.04374,0.135512 0.01919,0.03254 0.01834,0.04486 -0.0018,0.02739 -0.0202,-0.01747 -0.274018,0.204492 -0.56404,0.493266 -0.29002,0.288775 -0.55289,0.525044 -0.584153,0.525044 -0.03126,0 -0.08612,0.04554 -0.121903,0.101181 -0.03578,0.05565 -0.08986,0.10118 -0.120182,0.10118 -0.03031,0 -0.131949,0.05692 -0.22585,0.126479 -0.0939,0.06956 -0.195862,0.126479 -0.226582,0.126479 -0.03072,0 -0.06366,0.01985 -0.07321,0.04411 -0.02389,0.06068 -0.991435,0.512395 -1.097524,0.512395 -0.04712,0 -0.09919,0.02123 -0.115706,0.04719 -0.01651,0.02595 -0.1643961,0.07226 -0.3286269,0.102904 -0.16423,0.03064 -0.3337588,0.07431 -0.3767328,0.09704 -0.04298,0.02273 -0.133942,0.03303 -0.202155,0.02288 -0.06821,-0.01017 -0.150252,0.0026 -0.182309,0.02835 -0.06587,0.05288 -1.210551,0.104178 -1.646983,0.0738 z m 0.330978,-3.154033 c -0.07691,-0.08385 -0.17113,-0.152442 -0.209367,-0.152442 -0.03824,0 -0.06952,-0.02322 -0.06952,-0.0516 0,-0.02838 -0.06446,-0.147901 -0.143243,-0.265605 -0.137758,-0.205813 -0.143244,-0.239382 -0.143244,-0.876595 0,-0.3978017 0.02253,-0.6909567 0.05637,-0.7335767 0.031,-0.03904 0.08768,-0.207587 0.125942,-0.374539 0.03826,-0.166952 0.08887,-0.32841 0.112467,-0.358795 0.02359,-0.03038 0.02804,-0.06968 0.0099,-0.08731 -0.01816,-0.01764 -0.0072,-0.06225 0.0243,-0.09914 0.03152,-0.03689 0.08518,-0.230952 0.119233,-0.431251 0.03406,-0.200298 0.08058,-0.364179 0.103387,-0.364179 0.02281,0 0.03164,-0.04954 0.01964,-0.110082 -0.01201,-0.06054 -4.72e-4,-0.135092 0.02566,-0.165659 0.06121,-0.07163 0.05472,-1.0333746 -0.0072,-1.0705578 -0.02582,-0.015503 -0.0327,-0.071803 -0.01528,-0.1251116 0.01742,-0.053309 0.0097,-0.096926 -0.01711,-0.096926 -0.02683,0 -0.06141,-0.07399 -0.07683,-0.1644223 C 7.5317163,5.4897611 6.7460347,4.468681 6.6084864,4.5512473 c -0.02576,0.015463 -0.046836,0.00282 -0.046836,-0.028094 0,-0.055038 -0.3005406,-0.1848696 -0.3776408,-0.1631391 -0.021487,0.00606 -0.039066,-0.014191 -0.039066,-0.044994 0,-0.030803 -0.036377,-0.042447 -0.080838,-0.025876 -0.044461,0.016571 -0.067584,0.0093 -0.051387,-0.016155 0.044805,-0.070414 -0.489011,-0.160976 -0.9729819,-0.1650659 -0.5074945,-0.00429 -0.8332228,0.062959 -1.2035914,0.2484866 -0.1482684,0.074272 -0.302392,0.1405793 -0.342497,0.1473509 -0.040105,0.00677 -0.086984,0.032101 -0.1041762,0.05629 -0.017192,0.024188 -0.1132979,0.092968 -0.213568,0.1528455 -0.1795209,0.1072025 -0.6343943,0.5835179 -0.6220532,0.6513752 0.00348,0.019131 -0.030933,0.055036 -0.076473,0.079789 -0.04554,0.024753 -0.0828,0.075235 -0.0828,0.1121839 0,0.036949 -0.033884,0.094492 -0.075298,0.1278743 C 2.2778669,5.7175017 2.2155362,5.8682692 2.18077,6.0191582 2.146004,6.1700473 2.102494,6.2935016 2.084082,6.2935016 c -0.088776,0 -0.087526,1.3146517 0.00131,1.3679727 0.029839,0.01791 0.049229,0.05325 0.043091,0.07852 -0.00614,0.02528 0.016064,0.110044 0.049339,0.188375 0.033275,0.07833 0.0605,0.164834 0.0605,0.19223 0,0.14953 0.5107126,0.916918 0.5818209,0.874234 0.025202,-0.01513 0.041519,-0.0087 0.036261,0.0142 -0.028239,0.12319 0.2842297,0.522861 0.3550241,0.454101 0.018665,-0.01813 0.010354,-0.03296 -0.018478,-0.03296 -0.028828,0 -0.083388,-0.165055 -0.1212441,-0.366788 -0.037867,-0.201734 -0.091884,-0.395842 -0.1200492,-0.43135 -0.076477,-0.09642 -0.1078496,-1.214313 -0.041137,-1.465831 0.031367,-0.118258 0.08127,-0.309028 0.1108969,-0.4239335 0.029627,-0.1149053 0.081486,-0.2571938 0.1152431,-0.3161967 0.033757,-0.059003 0.056397,-0.1243518 0.05031,-0.1452207 -0.00608,-0.020869 0.00665,-0.037943 0.028307,-0.037943 0.021655,0 0.071333,-0.070127 0.1103949,-0.1558384 C 3.4093476,5.90347 3.983503,5.3467743 4.137136,5.3002861 c 0.058619,-0.017737 0.1206461,-0.053462 0.1378383,-0.079386 0.017192,-0.025925 0.064072,-0.053508 0.1041773,-0.061295 0.040105,-0.00778 0.1360057,-0.039352 0.2131124,-0.070145 0.077107,-0.030793 0.3115046,-0.070961 0.520884,-0.089263 0.4183011,-0.036562 0.6893473,0.013757 1.1099272,0.206057 0.2848401,0.1302364 0.7923251,0.5973543 0.8239431,0.7584042 0.01093,0.05565 0.04097,0.1467152 0.06676,0.2023658 0.06781,0.1463151 0.05681,1.4647032 -0.01293,1.5495502 -0.03136,0.03816 -0.04972,0.113609 -0.0408,0.167669 0.0089,0.05406 5e-5,0.122359 -0.01971,0.151775 -0.03772,0.05614 -0.2147012,0.737771 -0.2378623,0.916092 -0.00741,0.05706 -0.026099,0.125354 -0.04153,0.151774 -0.015431,0.02642 -0.0597,0.190325 -0.098374,0.364233 -0.038674,0.173909 -0.091655,0.316197 -0.1177364,0.316197 -0.02608,0 -0.033946,0.05004 -0.017479,0.1111978 0.016466,0.06116 0.00954,0.1351489 -0.015393,0.1644229 -0.1471804,0.172803 -0.1403428,1.817008 0.00792,1.90601 0.035636,0.02139 0.048096,0.05511 0.027688,0.07494 -0.020408,0.01982 -0.010525,0.06714 0.021954,0.105153 0.032483,0.03801 0.045059,0.08271 0.027947,0.09934 -0.0352,0.03419 0.3254967,0.56799 0.4535407,0.671203 0.04598,0.03707 0.08361,0.08965 0.08361,0.116851 0,0.06035 0.336701,0.393272 0.398476,0.394002 0.02435,3.03e-4 0.09116,0.05373 0.148452,0.118744 l 0.104176,0.118222 0.01404,-1.079316 0.01404,-1.079315 z m 1.010298,1.887073 c 0.150405,-0.146665 0.273464,-0.279897 0.273464,-0.29607 0,-0.01618 0.08204,-0.133761 0.182309,-0.261308 0.100271,-0.127545 0.182309,-0.257422 0.182309,-0.288614 0,-0.03119 0.04539,-0.138972 0.10087,-0.239509 0.05548,-0.100538 0.117107,-0.32217 0.1369488,-0.492517 0.01984,-0.170348 0.05213,-0.309723 0.07175,-0.309723 0.05638,0 -0.1051948,-1.336928 -0.1659948,-1.3735119 -0.03001,-0.01806 -0.03903,-0.07217 -0.02004,-0.120243 0.01899,-0.04807 0.0137,-0.1129778 -0.01174,-0.1442328 -0.02546,-0.03125 -0.08702,-0.238956 -0.136804,-0.461559 -0.04978,-0.222602 -0.108752,-0.427498 -0.13104,-0.455323 -0.02229,-0.02782 -0.0576,-0.153039 -0.07847,-0.278253 -0.02087,-0.125214 -0.05131,-0.249399 -0.06764,-0.275965 -0.02721,-0.04425 -0.04255,-0.126056 -0.07634,-0.40702 -0.0067,-0.05565 -0.03315,-0.115952 -0.05879,-0.134003 -0.07825,-0.05508 -0.06129,-1.4396996 0.01879,-1.5334147 0.0378,-0.044238 0.0546,-0.094152 0.03734,-0.1109208 -0.06351,-0.061682 0.125753,-0.3171412 0.43881,-0.5923003 0.176856,-0.1554463 0.3417148,-0.2705295 0.3663528,-0.2557402 0.02464,0.01479 0.0448,-0.00101 0.0448,-0.03512 0,-0.034105 0.01543,-0.047029 0.03427,-0.02872 0.01886,0.018309 0.05987,0.013188 0.09116,-0.01138 0.2010879,-0.1579167 1.2426349,-0.1847214 1.5153559,-0.038999 0.05729,0.030615 0.121757,0.059317 0.143244,0.063781 0.02149,0.00446 0.05665,0.013659 0.07813,0.020432 0.02149,0.00678 0.0573,0.00941 0.07958,0.00586 0.02228,-0.00355 0.05409,0.0279 0.07069,0.069896 0.01659,0.041996 0.06076,0.076356 0.09817,0.076356 0.137466,0 0.812184,0.716097 0.838442,0.8898605 0.0055,0.035862 0.0668,0.1405815 0.13641,0.2327121 0.0773,0.1023175 0.121036,0.2216555 0.112372,0.3066365 -0.0078,0.076519 0.004,0.1391269 0.0261,0.1391269 0.0541,0 0.07028,0.191734 0.07577,0.897998 0.0051,0.659726 -0.01343,0.867541 -0.08582,0.960969 -0.02683,0.03463 -0.0365,0.108623 -0.02148,0.164422 0.01502,0.0558 0.0061,0.101452 -0.01989,0.101452 -0.02596,0 -0.04736,0.03984 -0.04753,0.08854 -1.56e-4,0.04869 -0.03395,0.151142 -0.07505,0.227662 -0.09003,0.16763 -0.03868,0.181668 0.0906,0.02477 0.05136,-0.06232 0.1511,-0.181606 0.221654,-0.265082 0.07055,-0.08348 0.117627,-0.179073 0.104606,-0.212437 -0.01302,-0.03336 0.0057,-0.04974 0.04147,-0.03639 0.04,0.01491 0.124407,-0.09835 0.218723,-0.293477 0.08447,-0.174766 0.165946,-0.329138 0.18105,-0.343051 0.03762,-0.03466 0.226017,-0.602983 0.251555,-0.758872 0.03364,-0.205347 0.03158,-0.9234266 -0.0031,-1.0877163 C 13.901161,6.1494511 13.7185,5.6802956 13.66468,5.6426925 13.63936,5.6249975 13.57198,5.5234056 13.514952,5.416935 13.416652,5.2333934 13.038539,4.82635 12.966343,4.82635 c -0.01853,0 -0.101812,-0.056888 -0.185052,-0.1264168 -0.08324,-0.06953 -0.17948,-0.1264448 -0.213867,-0.1264787 -0.03439,-3.4e-5 -0.08127,-0.029505 -0.104179,-0.065492 -0.02291,-0.035987 -0.141273,-0.096547 -0.26303,-0.1345764 -0.121757,-0.03803 -0.221375,-0.085306 -0.221375,-0.1050574 0,-0.059005 -0.571129,-0.1485259 -0.98968,-0.1551268 -0.879357,-0.013873 -1.3890453,0.1751143 -1.9402851,0.7194375 -0.193378,0.1909512 -0.351597,0.3770594 -0.351597,0.4135735 0,0.036514 -0.05467,0.138362 -0.12149,0.2263285 -0.06682,0.087966 -0.151314,0.2915935 -0.187763,0.4525042 -0.03645,0.1609113 -0.08941,0.3405029 -0.117685,0.3990928 -0.09521,0.1972856 0.07424,1.4463969 0.256644,1.8918359 0.01709,0.04174 0.03395,0.08727 0.03746,0.101182 0.0035,0.01391 0.05032,0.207425 0.104032,0.430028 0.05371,0.222602 0.119338,0.432192 0.145845,0.465755 0.02651,0.03356 0.03407,0.08321 0.01681,0.110335 -0.01726,0.02712 -0.0076,0.06361 0.02156,0.08109 0.03081,0.01849 0.05294,0.270798 0.05294,0.6034717 0,0.539977 -0.0088,0.587688 -0.158375,0.859953 -0.08711,0.158542 -0.237827,0.363199 -0.334936,0.454795 l -0.176561,0.166537 -0.0051,1.077483 c -0.0059,1.227195 -0.04867,1.163612 0.453645,0.673783 z"
     style="fill:#2e4892;fill-opacity:1;stroke-width:0.05133447" />
</svg>
